<svg xmlns="http://www.w3.org/2000/svg" viewBox="0 0 24 24" fill="none">
      <path d="M12 21V11" stroke="currentColor" stroke-width="1.5" stroke-linecap="round" />
      <path d="M12 11c-2 0-4-1.5-4-4 2 0 4 1.5 4 4z" stroke="currentColor" stroke-width="1.5" stroke-linejoin="round" />
      <path d="M12 11c2 0 4-1.5 4-4-2 0-4 1.5-4 4z" stroke="currentColor" stroke-width="1.5" stroke-linejoin="round" />
      <path d="M12 8c-1.5 0-3-1.2-3-3 1.5 0 3 1.2 3 3z" stroke="currentColor" stroke-width="1" opacity="0.4" stroke-linejoin="round" />
      <path d="M12 8c1.5 0 3-1.2 3-3-1.5 0-3 1.2-3 3z" stroke="currentColor" stroke-width="1" opacity="0.4" stroke-linejoin="round" />
      <path d="M9 17l3-3 3 3" stroke="currentColor" stroke-width="0.75" opacity="0.3" stroke-linecap="round" stroke-linejoin="round" />
    </svg>