<svg width="700" height="94" viewBox="0 0 700 94" fill="none" xmlns="http://www.w3.org/2000/svg">
<path d="M35.84 93.44C25.9413 93.44 17.8347 90.88 11.52 85.76C5.20535 80.64 1.36535 73.8134 1.19209e-05 65.28L19.584 60.416C20.5227 65.536 22.4427 69.376 25.344 71.936C28.3307 74.4107 32.0427 75.648 36.48 75.648C38.6987 75.648 40.6613 75.3067 42.368 74.624C44.16 73.9414 45.568 72.9174 46.592 71.552C47.616 70.1867 48.128 68.5654 48.128 66.688C48.128 64.9814 47.616 63.488 46.592 62.208C45.568 60.8427 43.904 59.5627 41.6 58.368C39.296 57.088 36.224 55.7227 32.384 54.272C26.3253 51.8827 21.376 49.3654 17.536 46.72C13.696 43.9893 10.88 40.8747 9.08801 37.376C7.29601 33.8774 6.40001 29.8667 6.40001 25.344C6.40001 20.3947 7.59468 16.0427 9.98401 12.288C12.4587 8.44802 15.872 5.46135 20.224 3.32802C24.6613 1.10935 29.7813 1.52588e-05 35.584 1.52588e-05C41.8133 1.52588e-05 47.3173 1.45068 52.096 4.35201C56.96 7.16802 60.8427 11.4774 63.744 17.28L47.744 27.008C46.1227 24.0213 44.2027 21.76 41.984 20.224C39.8507 18.6027 37.504 17.792 34.944 17.792C33.408 17.792 32 18.0907 30.72 18.688C29.44 19.2853 28.416 20.1387 27.648 21.248C26.88 22.272 26.496 23.5094 26.496 24.96C26.496 26.4107 26.9227 27.776 27.776 29.056C28.7147 30.336 30.3787 31.6587 32.768 33.024C35.1573 34.304 38.4853 35.7547 42.752 37.376C48.4693 39.5093 53.1627 41.856 56.832 44.416C60.5867 46.976 63.4027 49.9627 65.28 53.376C67.1573 56.704 68.096 60.7147 68.096 65.408C68.096 70.8694 66.7307 75.7334 64 80C61.3547 84.1814 57.6 87.4667 52.736 89.856C47.9573 92.2454 42.3253 93.44 35.84 93.44ZM115.841 93.824C107.222 93.824 99.6277 91.8614 93.057 87.936C86.4863 84.0107 81.3663 78.5494 77.697 71.552C74.0277 64.4694 72.193 56.2347 72.193 46.848C72.193 37.4614 74.0277 29.2694 77.697 22.272C81.3663 15.2747 86.4863 9.81335 93.057 5.88802C99.6277 1.96268 107.222 1.52588e-05 115.841 1.52588e-05C125.654 1.52588e-05 134.102 2.47468 141.185 7.42402C148.268 12.288 153.345 19.0294 156.417 27.648L137.473 34.432C135.766 29.6533 133.036 25.9413 129.281 23.296C125.612 20.5654 121.132 19.2 115.841 19.2C111.062 19.2 106.881 20.3094 103.297 22.528C99.7984 24.7467 97.0677 27.904 95.105 32C93.2277 36.096 92.289 41.0454 92.289 46.848C92.289 52.6507 93.2277 57.6427 95.105 61.824C97.0677 65.92 99.7984 69.0774 103.297 71.296C106.881 73.5147 111.062 74.624 115.841 74.624C121.132 74.624 125.612 73.3014 129.281 70.656C133.036 67.9254 135.766 64.1707 137.473 59.392L156.417 66.176C153.345 74.7094 148.268 81.4507 141.185 86.4C134.102 91.3494 125.654 93.824 115.841 93.824ZM163.059 91.52V2.30402H183.155V36.224H217.843V2.30402H237.939V91.52H217.843V54.656H183.155V91.52H163.059ZM241.923 91.52L279.043 2.30402H293.763L330.755 91.52H308.867L286.467 32.256L263.811 91.52H241.923ZM268.547 76.416L274.819 58.496H297.987L304.515 76.416H268.547ZM334.754 91.52V2.30402H395.17V20.224H354.85V36.608H389.922V54.528H354.85V91.52H334.754ZM401.664 91.52V2.30402H462.08V20.224H421.76V36.608H456.832V54.528H421.76V91.52H401.664ZM497.55 93.44C487.651 93.44 479.545 90.88 473.23 85.76C466.915 80.64 463.075 73.8134 461.71 65.28L481.294 60.416C482.233 65.536 484.153 69.376 487.054 71.936C490.041 74.4107 493.753 75.648 498.19 75.648C500.409 75.648 502.371 75.3067 504.078 74.624C505.87 73.9414 507.278 72.9174 508.302 71.552C509.326 70.1867 509.838 68.5654 509.838 66.688C509.838 64.9814 509.326 63.488 508.302 62.208C507.278 60.8427 505.614 59.5627 503.31 58.368C501.006 57.088 497.934 55.7227 494.094 54.272C488.035 51.8827 483.086 49.3654 479.246 46.72C475.406 43.9893 472.59 40.8747 470.798 37.376C469.006 33.8774 468.11 29.8667 468.11 25.344C468.11 20.3947 469.305 16.0427 471.694 12.288C474.169 8.44802 477.582 5.46135 481.934 3.32802C486.371 1.10935 491.491 1.52588e-05 497.294 1.52588e-05C503.523 1.52588e-05 509.027 1.45068 513.806 4.35201C518.67 7.16802 522.553 11.4774 525.454 17.28L509.454 27.008C507.833 24.0213 505.913 21.76 503.694 20.224C501.561 18.6027 499.214 17.792 496.654 17.792C495.118 17.792 493.71 18.0907 492.43 18.688C491.15 19.2853 490.126 20.1387 489.358 21.248C488.59 22.272 488.206 23.5094 488.206 24.96C488.206 26.4107 488.633 27.776 489.486 29.056C490.425 30.336 492.089 31.6587 494.478 33.024C496.867 34.304 500.195 35.7547 504.462 37.376C510.179 39.5093 514.873 41.856 518.542 44.416C522.297 46.976 525.113 49.9627 526.99 53.376C528.867 56.704 529.806 60.7147 529.806 65.408C529.806 70.8694 528.441 75.7334 525.71 80C523.065 84.1814 519.31 87.4667 514.446 89.856C509.667 92.2454 504.035 93.44 497.55 93.44ZM577.551 93.824C568.932 93.824 561.338 91.8614 554.767 87.936C548.196 84.0107 543.076 78.5494 539.407 71.552C535.738 64.4694 533.903 56.2347 533.903 46.848C533.903 37.4614 535.738 29.2694 539.407 22.272C543.076 15.2747 548.196 9.81335 554.767 5.88802C561.338 1.96268 568.932 1.52588e-05 577.551 1.52588e-05C587.364 1.52588e-05 595.812 2.47468 602.895 7.42402C609.978 12.288 615.055 19.0294 618.127 27.648L599.183 34.432C597.476 29.6533 594.746 25.9413 590.991 23.296C587.322 20.5654 582.842 19.2 577.551 19.2C572.772 19.2 568.591 20.3094 565.007 22.528C561.508 24.7467 558.778 27.904 556.815 32C554.938 36.096 553.999 41.0454 553.999 46.848C553.999 52.6507 554.938 57.6427 556.815 61.824C558.778 65.92 561.508 69.0774 565.007 71.296C568.591 73.5147 572.772 74.624 577.551 74.624C582.842 74.624 587.322 73.3014 590.991 70.656C594.746 67.9254 597.476 64.1707 599.183 59.392L618.127 66.176C615.055 74.7094 609.978 81.4507 602.895 86.4C595.812 91.3494 587.364 93.824 577.551 93.824ZM624.769 91.52V2.30402H644.865V36.224H679.553V2.30402H699.649V91.52H679.553V54.656H644.865V91.52H624.769Z" fill="black"/>
</svg>
