<svg xmlns="http://www.w3.org/2000/svg" viewBox="0 0 24 24" fill="none">
      <path d="M11.25 21V11a0.75 0.75 0 011.5 0v10a0.75 0.75 0 01-1.5 0z" fill="currentColor" />
      <path d="M12 11c-2 0-4-1.5-4-4 2 0 4 1.5 4 4z" fill="currentColor" />
      <path d="M12 11c2 0 4-1.5 4-4-2 0-4 1.5-4 4z" fill="currentColor" />
      <path d="M12 8c-1.5 0-3-1.2-3-3 1.5 0 3 1.2 3 3z" fill="currentColor" opacity="0.3" />
      <path d="M12 8c1.5 0 3-1.2 3-3-1.5 0-3 1.2-3 3z" fill="currentColor" opacity="0.3" />
      <path d="M9 17l3-3 3 3" fill="currentColor" opacity="0.15" />
    </svg>