<svg xmlns="http://www.w3.org/2000/svg" viewBox="0 0 24 24" fill="none">
      <path d="M3 7c1.5 0 2 3 3.5 3S9 7 10.5 7s2 3 3.5 3V16c-1.5 0-2-3-3.5-3S7 16 5.5 16 3 13 3 13V7z" fill="currentColor" opacity="0.2" />
      <path d="M3 13c1.5 0 2 3 3.5 3s2.5-3 4-3 2 3 3.5 3" fill="currentColor" opacity="0.15" />
      <rect x="2.5" y="7" width="1" height="6" fill="currentColor" opacity="0.2" />
      <rect x="13.5" y="10" width="1" height="6" fill="currentColor" opacity="0.2" />
      <g>
      <path d="M19 10l2.5 4.5H16.5L19 10z" fill="currentColor" opacity="0.6" />
      <circle cx="19" cy="14" r="0.5" fill="white" />
      <rect x="18.6" y="11.8" width="0.8" height="1.5" rx="0.4" fill="white" />
    </g>
    </svg>