<svg xmlns="http://www.w3.org/2000/svg" viewBox="0 0 24 24" fill="none">
      <path d="M5 6c0-1 1-2 2.5-2C9 4 9 6 10 6s2-2 4-2 2 2 4 2c1.5 0 2-.5 2-2" fill="none" />
      <path d="M5 6v10c0 3 3 5 7 5s7-2 7-5V6" fill="currentColor" />
      <path d="M5 6c0-1 1-2 2.5-2C9 4 9 6 10 6s2-2 4-2 2 2 4 2c1.5 0 2-.5 2-2v2c-.3.3-1 .5-2 .5-2 0-2-2-4-2s-2 2-4 2-1-2-2.5-2C6 4.5 5.3 5 5 6z" fill="currentColor" opacity="0.3" />
      <rect x="8" y="10.5" width="8" height="1" rx="0.5" fill="white" opacity="0.2" />
      <rect x="8" y="13.5" width="6" height="1" rx="0.5" fill="white" opacity="0.2" />
    </svg>