<svg xmlns="http://www.w3.org/2000/svg" viewBox="0 0 24 24" fill="none">
      <path d="M12 2c-4 5.5-7 9-7 13a7 7 0 0014 0c0-4-3-7.5-7-13z" fill="currentColor" />
      <rect x="5.3" y="13.5" width="13.4" height="1" rx="0.5" fill="white" opacity="0.3" />
      <path d="M6 17.5c1.5 1 3.5 1.5 6 1.5s4.5-.5 6-1.5" fill="none" />
      <path d="M6 17c1.5 1 3.5 1.5 6 1.5s4.5-.5 6-1.5v1c-1.5 1-3.5 1.5-6 1.5s-4.5-.5-6-1.5v-1z" fill="white" opacity="0.15" />
      <path d="M10 11c0-1.5 1-2.5 2-4" fill="none" />
      <path d="M10 10.5a0.5 0.5 0 01.15-.35c.5-.75 1-1.5 1.5-2.8a0.5 0.5 0 01.95.3c-.5 1.3-1.1 2.2-1.6 3a0.5 0.5 0 01-.5.25 0.5 0.5 0 01-.5-.4z" fill="white" opacity="0.3" />
    </svg>