<svg xmlns="http://www.w3.org/2000/svg" viewBox="0 0 24 24" fill="none">
      <path d="M7 6c1-1 3-2 5-2s4 1 5 2l2 14H5L7 6z" fill="currentColor" opacity="0.25" />
      <path d="M9 6c1 1 2 1.5 3 1.5S14 7 15 6" fill="currentColor" opacity="0.2" />
      <rect x="11.5" y="3" width="1" height="3" rx="0.5" fill="currentColor" />
      <rect x="9.5" y="3.5" width="1" height="1.5" rx="0.5" fill="currentColor" opacity="0.3" transform="rotate(-20 10 4.25)" />
      <rect x="13.5" y="3.5" width="1" height="1.5" rx="0.5" fill="currentColor" opacity="0.3" transform="rotate(20 14 4.25)" />
      <path d="M8 10c2 .5 4 .5 7 0" fill="currentColor" opacity="0.1" />
      <path d="M7 14c3 .5 5 .5 9 0" fill="currentColor" opacity="0.1" />
    </svg>