<svg xmlns="http://www.w3.org/2000/svg" viewBox="0 0 24 24" fill="none">
      <path d="M4 16h16v4H4v-4z" fill="currentColor" />
      <path d="M6 16c0-3 2-5 4-5 1 0 2 .5 2 .5s1-.5 2-.5c2 0 4 2 4 5H6z" fill="currentColor" opacity="0.7" />
      <path d="M8 7c0 1 .5 2 .3 3l-.6 1" fill="currentColor" opacity="0.2" />
      <circle cx="8" cy="8.5" r="1" fill="currentColor" opacity="0.2" />
      <circle cx="12" cy="7.5" r="1" fill="currentColor" opacity="0.2" />
      <circle cx="16" cy="8.5" r="1" fill="currentColor" opacity="0.2" />
      <path d="M12 6c0 1 .5 2 .3 3l-.6 1" fill="currentColor" opacity="0.2" />
      <path d="M16 7c0 1 .5 2 .3 3l-.6 1" fill="currentColor" opacity="0.2" />
    </svg>