<svg xmlns="http://www.w3.org/2000/svg" viewBox="0 0 40 28" fill="none">
      
      <path
        d="M10 4h20v18l-1 2H11l-1-2z"
        stroke="currentColor"
        stroke-width="1.5"
        stroke-linejoin="round"
      />
      
      <path
        d="M9 4h22"
        stroke="currentColor"
        stroke-width="2.5"
        stroke-linecap="round"
      />
      
      <path
        d="M20 10l4 4-4 4-4-4z"
        stroke="currentColor"
        stroke-width="1"
        stroke-linejoin="round"
        opacity="0.4"
      />
      
      <g opacity="0.4" stroke="currentColor" fill="none" stroke-width="0.8">
        <circle cx="20" cy="14" r="0.8" />
        <path d="M20 13.2c-.8-1.2-2-1.2-2.2 0M20 13.2c.8-1.2 2-1.2 2.2 0M20 14.8c0 1.4 1.2 1.8 2-0.4M20 14.8c0 1.4-1.2 1.8-2-0.4" />
      </g>
      
      <path
        d="M12 24v2h4v-2M24 24v2h4v-2"
        stroke="currentColor"
        stroke-width="1.2"
        stroke-linejoin="round"
        opacity="0.5"
      />
    </svg>